<svg width="15" height="19" viewBox="0 0 15 19" fill="none" xmlns="http://www.w3.org/2000/svg">
<path d="M13 17.1487C11.7495 17.7654 10.3675 18.055 8.97918 17.9914C7.59088 17.9277 6.2401 17.5128 5.04917 16.7842C3.85823 16.0556 2.86476 15.0362 2.1587 13.8185C1.45264 12.6008 1.0563 11.2231 1.00557 9.8103C0.954838 8.39746 1.25132 6.99406 1.86816 5.72718C2.485 4.46029 3.40272 3.36994 4.53822 2.55486C5.67372 1.73977 6.99114 1.22569 8.37118 1.05917C9.75123 0.892648 11.1503 1.07894 12.4417 1.60119C9.71384 2.96355 7.89107 6.1057 8.06832 9.65961C8.24069 13.1276 10.2617 16.005 13 17.1487Z" stroke="url(#paint0_linear_331_155)" stroke-width="1.4" stroke-miterlimit="10"/>
<defs>
<linearGradient id="paint0_linear_331_155" x1="12.4706" y1="17" x2="-1.87623" y2="12.1946" gradientUnits="userSpaceOnUse">
<stop stop-color="#FFE5A2"/>
<stop offset="0.505208" stop-color="#BF841A"/>
<stop offset="1" stop-color="#FFCD74"/>
</linearGradient>
</defs>
</svg>
